<svg id="Layer_1" data-name="Layer 1" xmlns="http://www.w3.org/2000/svg" viewBox="0 0 900.11 370.92"><defs><style>.cls-1{fill:#464646;}</style></defs><path class="cls-1" d="M694.44,423.6c.4.47-.45.8-.47,1.25-.51,0-1.13-3.1.47-1.25ZM273.77,444.54a.61.61,0,0,1-.16.79c-.91.61-.17-1.61.16-.79Zm1.35,2.12c.5-.1.81.49.29.73-.2-.16-.47-.47-.29-.73Zm-126.68,13c1.68-.6,3.58-.23,5.29,0,4.16,2.63-8.12,2.58-5.29,0Zm643,12.47c.64.39-.05,1.05-.11,1.56-1,1.63-1.79-1.76.11-1.56ZM760,484.83c2,.25.16,1.74-.76.7-.33-1.61-.81-2.3.76-.7Zm-97.75,13.51c1.66,2.36-2.65,3.8-2.56,1,.52-1.42-.54-2.53,1-3.32.78-1.31.21,2.92,1.55,2.31ZM867.1,517.2c1.1,1.19-1.27,1.66-1.92-.34-.49-1.09,1.57.25,1.92.34Zm12.74,72.61c.46.27.29.83.15,1.26-1.18,1.36-1.65-2.1-.15-1.26Zm-487.7,1.73c1.18-.63.59,1.31,0,.81,0-.29-.4-.67,0-.81ZM890.4,606.28c.35,2.08-2.08,1.14-2.13-.41.54-1.09,1.86-.63,2.13.41Zm-268.93,91c1.23.23-1.16,1.14-1.69.81-.22-.74,1.16-.9,1.69-.81ZM723.54,340.89c.05-.05.14-.25.24-.16-.07.18-.13.52-.24.16Zm-4,92.82c.32.17-.16.53-.08.77-.29,1.29-1.56-1.77.08-.77Zm99.68,5.94c.46-.45.34.42,0,.54a1.63,1.63,0,0,1,0-.54Zm-.39,1.08c0-.09.12-.28.17-.35,0,.1-.12.28-.17.35Zm63,5.78a.78.78,0,0,1,.67-.19c.47.81-1.4,1.06-.67.19ZM834.18,580.08c1.43-.64-.19,2.52-.55,1.22a1.32,1.32,0,0,1,.55-1.22Zm-40.45,22.31a.69.69,0,0,1-.31-.25c-.13-.56,1,.08.31.25Zm-10.86,9.44c-.45.1.17-1.07.92-.72.13.6-.53,1.52-.92.72Zm-7.37,5.26a.36.36,0,0,1,0-.61c.71-.52.74,1.14,0,.61Zm11.28,12.81c-.86-.49-.38-1.15.32-.26,1-.39.13.81-.32.26Zm6.82,3.39c.44.87-.47.51-.57-.06s.62-.48.57.06Zm1.21.84c.94.66-.25.46-.7.27s.46-.33.7-.27ZM632.25,471.56c-1.68,1-2.37-1.47-.92-2.65-.29,1.22,1.33,1.62.92,2.65Zm25.14,28.31c1.07.75-1,1.78-1.32,2.54-1.62-.17.69-2.3,1.32-2.54ZM472.9,619.22c1.62,2.21-.67,2.2-1.73.81a1,1,0,1,1,1.73-.81Zm4.6.91c2.12.89-1.22.75-1.92.61-.39-.9,1.38-1,1.92-.61Zm145.94,25.66a.74.74,0,0,1,0,1.47c-.62-.38-.88-1.29,0-1.47ZM636.78,649c1.29-.12,1.6,1.17.33,1.52-.45-.32-1-1.15-.33-1.52ZM766.5,408.55c.44,7.52-9,15.66-9.62,5,1.06-4.07,7.12-11.71,9.62-5Zm-20.92,59.17c2.41-21.65-14.27-33.06,5.91-52.84,5.85.34-3,4.74-2.1,8.15,3.89.93,3.06,3.23,3.7,6.77,1,9.6-14,10-5.6,15.41,4.61,1.58,2.43-4.45,5.24-6.24,1.28-.86,4.91-.35,3.32-2.93-5.86-1.17,14-13.29,10.51-4.48,7.37,10.73-21.46,12.77-3.07,18.62,5.64.11.23,6.15,5.84,6.12,5,4.23-13.19-3.51-15.46-3.35-9.82-1,.87,25.88,6.46,29.21,3.48,1.18-3.58.68-3.08-.83,2.5-.58-4.12-2.18-4.4-3.23-1-4.8-4.84-7-7.27-10.38ZM697,429c.81,1.14-1.52,5-2.47,3,1.37-.23,2.12-1.78,2.47-3Zm-561.22,12.2c-.67,23.3-11.09-4.8-17.39-9.51,10-3.29,9.7,2.55,17.39,9.51Zm129.15,2.55c1.82.32-.11,1.76-1,1.79-2.1-3.54-2.67-3.66,1-1.79Zm474.64,2.1c-1,2-2.87-1.28-.95-1.72.69.3,1.35.91.95,1.72Zm-473.45,1.68c-1.3.55-3.23-2.06-.81-1.72.64-1.21,1.15,1.95.81,1.72Zm473.61,1.87c-.56-.53-.17-3.07.51-2.8,1.66-.46.89,3.16-.51,2.8Zm-475-1.87c.66.11,2.16,1.73,1,1.65a9.37,9.37,0,0,0-1-1.65Zm475.42,7.22c.78.69.41,2.54-.83,2.11-.77-.85-.47-2.22.83-2.11Zm-471.53.89c.42.19.41,1.15-.12,1-.74-1.07-2-2.34.12-1Zm5.81,5.88c1.79,3.18-5.43-4.22-3.63-3.55.46-.33,3.21,3,3.63,3.55Zm-3.93,0c-1.12.21.14.71-.43,1.05-2.27-2.62-1.53-4.76.43-1.05Zm470.91,1.65c0,1.83-.56-.18-1-.6-.24,1-.54-.23-.44-.65.51-4.16,1.34-.73,1.41,1.25ZM784,466.07c2.42,4.57-3.79-1.64-4.09-3.1-3.16-3,3.68,2.78,4.09,3.1ZM279.3,468.33c2.13,1.28,1.93,1-.24,1.1,1.51,2.33-3.24-.84-3.72-1.6-3.39-.34-2.63,2.19-6.07,0-.34-1.85,1.44.08,2-5.18a4.34,4.34,0,0,1,3,1.9c-1.9.64.88.43,1.14,1.37,1.38,4,1.83-2.18,3.94,2.41Zm341.36-1.2c-.35-.88.34-1.42,1.2-1.27.87.79-.4,2.44-1.2,1.27ZM637,468.91c.17,2.34,0,1.76-1-.12-4-1.61-.46-1.65,1,.12Zm-3.1-.36c1.65,1.09-2.53.19-1.22-.79.73-.7.37.44,1.22.79ZM254.36,469c3.26,1.88-3.08,3.06-4.57,2-1.92-1.59,1.9-4.05,4.57-2Zm482.37,4.85c-3.74,3.94-3.55-8.13.61-4.63,1.54,0,0,.55-.27,1,.56.92.77,3.55-.34,3.67Zm13.42,6c.32,1.87-2.72,3.26-4.28,1.88-.73-.33-.22-2.56-1.31-1.95-1.74.64-3.76,2.49-3.67-.72,1.56-2.44-.79-1.85-1.72-3.64-2.45-1.81,0-8,1.68-3.34,1.68-1.57,2.08-4.19,3.93,0,3.58,1.1-2.5,4.36.42,5.17-.29,3.18,4-.66,4.95,2.65ZM630,470.42c2.08,1.5-2.67,2.66-3.46,1,.26-1.7,2-1.34,3.46-1ZM271.5,471.87c2.42,2.47-.51,1.6-.76,4.74-1.65-.08-2-2-2.62.86-1.35.86.46-1.73-2.62-3.91.19-1.47,2.26-4.28,1.71-1,.43-.21,0-1.43.89-.59,1.75-1.13,1.64-2.29,3.4-.07Zm354.89.06c1.59.44,1.6,3.58-.12,1.81-.71-.45.46.67-.35.6-3-1.48-1.53-.18-3.27.87-1.74.06.7-2.48,1.42-2.66.54-1.42-.16.55,2.32-.62Zm181,.76c.75,1.87-3,3.63-1.65.64-1.24.56-.8,1.28-2.78,1.33,1.72-1.27-1.13-.24.66-1.65,1.46,1.21,2.09-1.82,3.77-.32ZM738,479.46c1,1-.18,1.89-1,.91-4.41.55.5-7.62,1-.91Zm74.25.76c-1.7,2.94-13.74,5.17-9,.47,1.16,1.4,3.28,0,5.73.42,3-.63-1.46-1.79,3.26-.89Zm-19.74,8.44c.21,1.38-1.14.46-2,1.55-1.62.44,1.44-.9.05-.72-5.09,1.07-.32-2.33,1.9-.83Zm-132.3,2.23c2.72,1.06-.44,6.21-2.89,5.43-1.75-5.39-2.19,1.43-2.6,2.54.1-1-5.05-.1-1.19-2.39-.07-1.17.37-6.2-1.43-4-6.92,13.46-9.84-6.33,1.77-4.1,2.59,2.58-1.41,1.76.65,4,0,4.3,2.86-4.95,3.86-1.86,1,.59-.1-1.23,1.83.36Zm85.86-1.11c.73,2.2-2.49.31-4.33.79-.88-2.42,3-1.19,4.33-.79Zm9.33,8.35c.9,5-6.8.95-9.44,2.24-12,3.36-4.9-16.21,9.44-2.24ZM317,519.37c2.7,0,.53.74-.64,1.19-1.86,2.49-4.6,7.67,0,8.58.58,1.35-.38,2.4-1.58,1.77-5.65.69-1.75-2.23-6-2.6-16.83-5.21-3.4-20.67-23.36-19.71-8.38-1.58,7.92-5.25,2.17-8.18.3-1.64,5.94-6,6-1.85,3.49,2.06-1.47,1.22,1.37,3.33,1.59.19,3.47,1.43,1.35-1,.18-2.07-2.75-5.06,1-4.29,12.5.73,1.57,23.53,19.69,22.74ZM697.36,502.2c1.23,3.71-2.45,1.27-4.2,2.55-2.94.07-1.38,1.82-5.78,0-9.73,7.22-14.14-3.58-6.12-5.7,3.09-.57,9.4,2.23,11.71,2.58-.2-1.48,1.15-1.81,1.94-.68.16.48-.47,1.79.51,1.47,1.78-3.37,1,.39,1.94-.22Zm182.95-.89c.82.5-.11,1.49-.57,1.94.16,4.85-2.3.1.57-1.94Zm-227.69.59c1.16,1.12-.42,1.83-.74,2.85-1.33,1-.19-4.58.74-2.85Zm65.54,1.18c-2.5,2.54-10.07,1.89-14.53,2.12-6.58,1.47-1.76,0-4.92-1.35-4.55-2.13,15.8-1.25,19.45-.77ZM667.48,506a3.58,3.58,0,0,0,.24,1.05c-2.77,1-2.46-5.12-.24-1.05Zm45.35,9.54c.43,6.69-5.39-6.44-3.89-8,3.19-4.52,1.74,6.2,3.89,8Zm170.54-8.37c1.7.25,0,2.29-.16,3.22-1.52.18-1-2.93.16-3.22Zm4,9.08c-.23,2.06-1.87-.49-.43-1.43.36-2.81.53.48.43,1.43ZM348.3,525.7c-.68,1.66-1.89,3-1.93,4.85-1.13,1.7,2.09,1.14-1.86,1.94-2.73,6.11-5.42-7.19-5.47-.25-6.06,4.49-4.91-.79-4.85-5.1-1.83.74-1.32-.46,0-.94-1.42-10.28,12.07-8.19,14.15-.5ZM826.24,521c.27-.2,1.5-.9.92-.14-.37.56-2.22.84-.92.14Zm-14.89,20.65c-1,15.55-18-9.19-28-6-.48,1.31,2.74,3.8-.49,3.54-2-2.35-13.53-1.15-10.33-4.65-1.15-2.82-7.2,2-5.91,3.48-7.19,5.44-10-11-12.37-6.12-.1,2.17-5.31,13.92-3.23,5.67-1.17-4.44-2.75-5.67,2.74-7.1,1.13-8.63,13.94-2.34,20.22-5.77.7.88,0,3.77,2.05,3.23,8-5.94,9.52-2.76,18.33.9,6.52-1.27,12,1.73,12.5,8.55,5.82,1.85,1.43.21,4.45,4.24ZM329.87,526.15c1-1.95,3.45-.82,1.4,1-1.08.31-1.13,1.06-1.92-.24-1.29-.84,0-.34.52-.8Zm-6.06-.21c.06,1.53-.79,1.06-1.69.46.61-.83,1.09-2,1.69-.46Zm-3.9,1.55c.45,2.91-2.63,2.19-3.76.58,1.11-1.94,2-1.21,3.76-.58Zm417,11.91c-1.63,13.75-29.29,6.39-24.7-7,1.47-.63,24.57-4.79,20.6,2.93.39,3.35,6.22-.68,4.1,4Zm30.34,1.2a8.51,8.51,0,0,1,.16,2c-.53-.16-1.35-1.68-1.57-.52.12,2-1.33-.79-1.71-1.4-.6-1.76,1.29-.12,1.9.12.57.46.5-1.72,1.22-.17Zm-8-.3c.09,3.23.6,2.6-1.72,2.38,2.46,2-4.47,4.11-2.35,2.69,2.7-3.43.88-1.54-1.84-.54-7.14,3,2.39-5.48,5.91-4.53Zm4.06.46c2.3,1.65-2.34,2.5-2.89,2.07.45-2,.63-3.12,2.89-2.07Zm-109.74.9a1.22,1.22,0,0,1-2.37.14c.26-.54,2.19-1.41,2.37-.14Zm115.23,1.52c.26.66.26,1.46-.71,1.25-.66-.54-.14-1.7.71-1.25Zm54.31,8.67c.3,1.85-1.75-.69-1.61-1.5,1-1.19,1.32.79,1.61,1.5Zm-169-1c2.62,1.53-.85,7.17-3.27,4.77-4-4.44-.69-5,3.27-4.77Zm164.69-.12c.37.22.49,1.09.09,1.31-.49-.25-1.06-1.94-.09-1.31Zm2.69,3c1.88,1.6-2.41-.33-1.68-1.23.43-.12,1.16,1.06,1.68,1.23Zm45,2.42c3.76,3.31-4-.95-4.81-1.74-.58-2.39,3.51,1.9,4.81,1.74ZM653,578c3.06,1.33-.08,3.53-1.72,4.27-1.31-.43-3.08-1.15-4.2,2,2.63-.73-.37,3.73-1.45,4.07-.2-1.92-.44-.4-1.05-.47-.33-3.31-1.1,4.17-3.52-3.63.28-.42,2-1.51,1.74-2.11-2-1,6-5.65,2.16-4.51,2.41-4.47-.83-15.1,6.39-18.15-.37,1.63,2,2.63,2.69,4.53-.18,1.53,1.52,9.23-.94,3.3-2.8-1.48-3.44,6.07-4.19,10,2.81-1.4,1.2-1.41,4.09.77Zm173.42-17.51c.86-.47,1.33,1.46,1.53,2.06-.78.8-1-1.84-1.53-2.06Zm-181,10.71c-.15,1.53-4.64,4-3.31,6.06.81-.08.09.92-.42.82,3.48,1-2,7.29-1.13,2.43-1.38-3.57-.24,2.42-2.28,1.19-1.47-.87,1.69-2.31-.75-1.58-.5,1.08,0,1.77-1.68,1.51-2.57-2.93,4.2-7.57.29-12.07,1.28-3.79,3.08-1.28,5.61-4.09,4.24-3.41,2.43,3.7,3.67,5.73ZM829,566.3c.46.33.66,1.34.08,1.62a1.72,1.72,0,0,1-.08-1.62ZM630.77,577.81c.49,8.22-4.28,6-5.13-.15,2.06-2.26-.11-2.5,2-3.39-.64,1.15,2.11.2,3.11,3.54Zm228,2.1c-.26,4.19-10.43,24.2-5.24,8.56,2.59-1.14,2.6-10.46,5.24-8.56ZM891,598.62c-.84,10.12-13.57.14-8.29-7.27,1.93-1.43-5.31-1.24-2.39-3.21,3.26,2.16,2.82-2.45,5.28-3.09.76.6-1-3.46.66-2.27,2.29-1,3.12,1.68,3.19,3-.47-.29-1.63.35-.21.3,3.55,2-.2,2.56,1.36,3.9,0,1.88-1.58.74.32,2.1.34,2.09-1.08.19-1.18,1.26,2.07,2.29-.83.07-1.69.43.67.73,5.38,3.71,1.7,5.38-.4.42,1.19-.36,1.25-.51Zm-40.12-8.18c.87.87-1.07,5.15-1.6,2.71-.2-.67-.29,1.73-1.15-.48.12-2.18.43-3.55-.53-5.29-1-2.15-.07.17,1.14-1.13.35,1.19-.87,1.21.88,1.38a6.7,6.7,0,0,0,1.26,2.81Zm-573.57-.6c.52.25.46,1.71-.26,1.15-1.12-.81-1.58-2.07.26-1.15Zm322.24,3.93c.61,1.65-.94,15.47-1.69,9.85-.19-2.53-1.38-20.11,1.69-9.85Zm285.84,14.08c1.33,0,.31,1.43-.25,1.91-.36-.18-2.23-.12-1.06,0-3.81,12-11.25-.41-4.74-4.84-1.89.73-1.3-1.6-1.27-2.65-3.32-8.21,8,3.28,7.32,5.53ZM286.18,606.8c.26,2.45-1.59,4.73-1.82,1.22-2.61,2.87-.43-1.38,1.82-1.22Zm180.08,8.55c4.72,2.19-3.25,1.94-3.59,4,1.31,1.79-4.06-.19-5.34.75-1.1.53-.62,2.42-2,2.62-1.47-1.7-8,.86-7.28-2-.47-.87-1.56,0-.87.71,2.75,2.31-7.26-1.45-7.66-.65-4.16-8.58,21-6.62,26.72-5.46Zm299.9,4.93c.61,4.22-5.69-1.29-.84-1.53.33.56,2.67,1,.84,1.53Zm67.93,1.14c.3,2.94-1.42.28-2.13-.54-.84-.27-2.57.48-3-.51,1.32-1.57,4.67-1,5.13,1Zm-5.81.84c-2.79-.29,2.36,9.14-4.14,11.06-1.38,2-2.73,4.49-4,6.64.17-2.43,0-2.3-1.43-.49-2.28,0-2.76.5-2.17-2-.49-.74-1.21-.79-.44-1.89,2.48-.46.25-.83,1.12-1.2,0-1.13-.79-.47-.87-1.5.5-1.25,1.87.76,2.78,0-4.88-3.84,6.23-8.2,5.71-11.89.58-1.21,3.33-2.2,2.59,0,1.08-1.74,2.57.81.9,1.21Zm-86.72,6.66c1.49,1.06-1.48,2.55-2.3,2.84.3-1.8-.62-4.45,2.3-2.84Zm-13,4.4c-12,7.18-11.35,1.56-21.75,5.89,3.77-9.91,2.71-6,11.33-6.57,1.52-1,6.36-4.69,6.53-1.74,1.24,1.53,3.65.3,3.89,2.42Zm61.62,3.36c1.22,5.69-6.8,3.68-4.92-1.56,1.35-.45,5.34-.47,4.92,1.56Zm26,5.62c4.17-.68-3.16,2.82-4.25,2.63a2.59,2.59,0,0,1-2.84,2.24c2.8-3.12,4.47-6.93,7.09-4.87Zm-61.9,0c2.88,4.21-8.4,1.91-6-.61,1.94-.37,4.08,1.61,6,.61Zm-60.63,1.91c1.18,6-8.93,2.78-12.22,5.06-1.45-1.07-3.38,1.85-4.2-.71a9.53,9.53,0,0,1,4.29-3.89c-1-1-4.91,2.8-1.89-2,4.62-1.86,1.58,2.62,4,.69,3.09-.27,8-1.76,10.07.82Zm282.24,2.66c1.55,3-6.43.94-7.16.22,3.73-4.54,4.41-6.32,7.16-.22Zm-299.18-2.59c-.63,1.81-2.32,8.82-5.27,7.08.63-4.65-5,.61-1.73-4,1.37-1.61,2-1.73,2.67.36,1,.07,3.08-6.47,4.33-3.48Zm-7.8.15c1,2-2.4-.24-5.15,4.68-.63-1.71-1.23.58-2.14.75-.15.77,1.63,1.89-.16,2.16-1.36,0-.92-2-2.25,0-1.18,1.53-2-1.5-3-.45-5.38-.19,4.51-3.75,3.33-5.07-5.83.18,2.12-2.74,1.85-1.09-2.9,3,2.38,2.79.47,1-.21-1,1.14.54,1.17-.93-1.21-2.83,1.64.79,1.26-1.07,2.17-1.41,1.65-.6,4.57,0Zm-9.48,42.78c1.83.5-.56,2.57-1.13,1.59-.4.41,1,4-.89,1.79-2.48,2.95.26-4.82,2-3.38Zm-1.55,9.86c2.69,2.46-3.46,1.74-3.16,4.19-.46,1.78-6.08.82-5.42,2.84-8.46.16.73-4.69,3.9-6.09,1-2,6.2-6.45,4.38-1.9.18.66-1.07,1,.3,1ZM82.69,333.4c2,2.16-.86,4.32-2.62-.14,1.59-.55.59,2,2.62.14Zm-4.64,4.08c.71.46.24,1.25-.42.61-.19,0-.8,1-.78.32-.21-.49.2-1.44-.16-1.48-1.54.34-.28-1.55,1.36.55Zm1.27,1.83c.42.56.14.3-.29.57-1.84.52-.5-2.43.29-.57Zm461.86,33.44c1.92.48.91,2.9-.69,2.83-2.41-.8-.85-5.12.69-2.83Zm3,6.87c-.82.18-2.2-1.22-2.26-1.51.78-.41,2.63.63,2.26,1.51Zm-6.75,7.09c-.88.68-5.13-.48-6.05-1.28,0-2.76,5.33.18,6.05,1.28Zm7.73-.45c.38,2.14-2.13-.6-2.39-1.34.48-1.82,2.32.29,2.39,1.34Zm-5.51,1.32c2.25-.05.49,2.42.86,3.65-1,1.41-5-4.59-.86-3.65Zm-2.49,2.29c1.81,1.05-1.21,1.15-1.78,1-.31-1,1-1.58,1.78-1ZM106,410.07c-1.1,5.17-6.87-4.29-10.23-4.13-3,.47-3.71-2.87-5.8-3.87-.51-2.46,1.5.26,1.92-3.6,1.88,1.29,3-.36,1.87,2.11,1.14-.79,1.67,1,2.47,1.53,4.59.62.72,2.05,3.14,2.83-.52-1.53,3.59,2.24,4.16,2.79.6,2.45,1.08-1.88,2.47,2.34Zm453.62,3.75c.11.46,1.83,1.61.67,1.25-.94-.2-2.44-3.54-.87-2.6.36.07,1.46,1.24.57.82-1.13-.94-.72-.41-.37.53ZM123.44,416c1.18,5.43-1.9-1.48-4.63-1.43,1.78-1.26,1.59.58,2.42,0,1.12-1.12,1.81.57,2.21,1.47Zm-14,.45c1.68.49-1.06,2.18-.7.45a.47.47,0,0,1,.7-.45Zm104.12,1.51c2.91,3-1.68,10.61-5.35,6.43-1-1.9-2.73-8,1.45-6.39,1.83-.62,2.23-3,3.9,0Zm-93.72,0c-1.41,1.56-.78,1-1.69-.64.92-.75,1.51-.84,1.69.64Zm28.79,8.27c2.78,1.8-2.5,1.62-2.56.12,1-2.27,1.27,1.65,2.56-.12Zm80.82,7c1.15,4.91-2.66-.54-3.92-1.32-6.54-.43-8.12-6.5-3.46-3.64,2.95,1,8.42.23,7.38,5Zm-.47,2.67c-.22,4.51-.39,10.64-4.8,3.52-.68-6.22-1.58-10.44,4.8-3.52Zm44.73,3.2c1.21,3.79-2.84,8.31-3.71,3.86,1-.36-.61-.45-.91-.62-.57-.49.33-.69.69-.75-.13-.19-.17-.73.11-.77.43-2.37-3.4,1.43-4.56,0-.69-4.16,4.09-3,6.69-4.21.48-1.16,0,2.31,1.69,2.47Zm-10.42-1.41c.31,7.37-7,1.33-4.05,1.8.41-.72-.83-1.79,1-1.2,1-1.64.54-1.31,1.83,0,0-1.1.29-1.82,1.25-.6Zm-20.91,5.11c3,6.12-7.71-4.69-10.26-1.8,1.54-6.09,8.27-2.24,10.26,1.8Zm-1.6,2.88c0,4.28-1.34,1.15-3.16.15-2.94-.89-6.54,1.26-9-.93-2.13-1.35-.41-1.88.87-2.65-.13-1.32-1.75-5.1,1.15-3.79,2.6,5.28,5.69.44,10.09,7.22Zm8.09-4.74c-.74,1.66-4.28-1.69-1.57-2.6.64,0,.66,1.9,1.57,2.6Zm84.47-.54c1.28.2.51,1.62-.31,1.34.76-.64-1.3-1.14.31-1.34Zm-56.67.13c1-.17,1.49,1.89.61,1.46.23-.73-.92-1.11-.61-1.46Zm-17.56.77c1.8,2-1.65,1.41-2.11.14.37-1.09,1.11-.43,2.11-.14Zm-2.88,3.15c1.2,1.35,1.17,2.68-.78,1.05-1.44-1.16-.46-2.85.78-1.05Zm-6.42,1.67c1.16,3.42-2.61,3-3-.16-.12-3.54,1.92-1.61,3,.16Zm6.76-2.4c2.09-.3,3.47,4.4,1.57,1.67-.58-.41-1.39-.92-1.57-1.67Zm-6.15,1.49c1,1.81-1.89-.9-2-1.21.55.37,1.69.54,2,1.21Zm-4.61,4.24c1,1.86-2.16,3.12-3.15,1.89-.5-2.46,1.8-5.66,3.15-1.89ZM147.05,466.6c4,8.95-1.55.61-3-2.67-2.34-1.32,2.85-2,3,2.67Zm.45,6.64c-.3.76.26,1.78-.17,2.3.13-.79-1,.26-.53-.58-2.2,0,.47,2-4-.3,2.74,0,1-3.19,2.52-4.68,1.15-3.63,2.61,1.49,2.13,3.26ZM163.34,499c.43.6.65,1.75,0,2.27-.1-.61-.45-3-1.24-2.52-.63.27,2.33,4.12-.12,3.24-17.55-.53-12.95-35.51-.89-7.84.31,1.86-1-.44-.7.75,1,1.72,2.54,2.52,3,4.1Zm215-11.66c1.55,1.61-4.62,2.71-5.28,4.13-2.9.59-1-5.71-.55-6.92,2.44.8,6.39-1.23,5.83,2.79Zm-16.31,10.31c.53,1.75-3.84,3.2-2.73.48-1.92-.73,2.12-2,2.73-.48ZM174.6,513.49c2.38,3.3-2,.56-3.11-.47-2.9-.07-.19-.91-1.6-1-.17-.9-.43.58-.78-1-1.4-1.56.11-.68.14-1.35,0-6.52,4,2.38,5.35,3.76Zm7.86,8.81c.82,2.52-2.74,2.49-3.45,3.08-2.41-5.24-2.61-11.45,3.45-3.08Zm3.94,10.77c4,6.27-2.43,1-1.13-1-1.07-1.76-3.83-2.54-3-5.28-2.25-7.34,9.37,4.66,4.48,5.23-1.14-.16-.17.54-.35,1.08Zm2.25-1.34c-.12.45.29.89.57,1.2-.66.53-1.27-.82-.57-1.2Zm323.92,13.1c-4.55,19.1-8.64-4.25-2.73-9.26,3.48-5.1,1.84,6.55,2.73,9.26Zm2-7.15c1.34-1.45.07,4.81-.28,5.43-1.85-1.91-1.16-3.61.28-5.43Zm-11.35,30.19c.53.39-1.06,1.86-1.48,1.13.16-.32,2-2.47,1.48-1.13ZM227.57,582c-.3.82-1.3.69-.33,1.61-.72.32-2-.75-2.19.49-.68-2.21-5.09-3.23-2.79-4.62,1.59-.29,4.43,1.3,5.31,2.52Zm270,33.15c.46,2-7-1.34-3.59,1.36-6.08,2.07-3.19-6.67,3.59-1.36ZM363.18,634c1.67,1.2-3.68-.89-4.49-.54-.93-2.32,3.8-.11,4.49.54Zm135.35,11.76c7,4.89-11.29,6.63-7.87,11.8-5.44,3.93,3.82-8.05-12.23-9.35-3.15-1.91-6.8-8.39-.54-6.15,9.25,4.45,12.55-6.38,20.64,3.7Zm151.9,0c.43,1.79-1.8.76-2.51,1.66-.23,1.47.51,3.1-1.7,1.62,1.43,8.46-14.63,5-20.22,9.37-1.57,1.73-3-1.19-3.88,1.06-.12-2.75-2.87-1.59-4.63-2.39-1.94-.49-.22,2.08-1.63,2.67-6.41-1.55-3.14,1.42-8.57.18-3.61-5.38-2.26,1.29-6.59-2.76-2.07-.75-4.51.32-6.61.6-1.44-.07-2.27-2.27-3.79-.89-4.61.39-2.59,3.55-4.54.32-3.66-1.63.19-6.16-.11-8.68,1.89,2.56,5.46-1.94,8.4-3.19,1.28.14,2.35.37,3-.93.91.59.52,1.86,2,.63a64,64,0,0,1,20.26,7.7c2.59-2.77,3.21-2.68,7.42-2.45,1.23.28,2.66-2.38,3.48-.95-1.12,2.33,9.14,6.47,9.66,1.76-3.09-2.28,11.28-5,8.3-7.57-1.29-.51-5.14,2.92-2.91-.55,1.75-4.66,4.47.35,5.15,2.79ZM572,653c-1,6.58-5.48.4-9.76,2.72-1.76,1.82,5.12.08,4.45,2.4-11.18-1.9-11.25,4.26-10.87-5.74-4.09,9.85-44.69,18.37-32.46-.18.56-1.86-.61-1.26,1.2-1.08,2.59-.36,4-2.75,5.8-3.58,9.51,4.68,1.89.47,8.09,1.27.06,1.4.67,3.08.66.53,1.08-1.3,0,3.69,2.48,2.72.93.09.62,1,1.39,1.41.11.32-1,0-.48.62.57,2.49,2.24.28,3.47,1.55,1.28,1,1.89-1.51,3.06-1.7,1.26-.39,5.6,1,3.81-1.75-3.51-1.35-18.75-8.69-6.37-10.9,5.79.71,3,2.5,6.34,5.65,1.3,1.74,2.79-.72,3.6-1.78,5.72-.6,5,2.9,4.59,6.43,2.29-2.06-.55-5.31,3.94-5.74,5.53-.71,2.19,6.07,4.43,8.06,1.8.16,1.52-3.48,2.63-.91Zm-2.4-10.64a1.53,1.53,0,0,1-.16,2.9c-1.81.1-1.4-2.77.16-2.9Zm-50.31,3.19c6.68,1.84-5.07,12.08-1.9,12.45,2.27,1.25-.86,1.59-1.93,1.87-.67-.44,1.64-2.35-.48-1.86-.92,0-.18,3.92-.71,1.94-1.25-.88-3.74.63-4.54-1-.85-.5-2.58,1.15-1.71-.3-.22-.41-1.14-.07-1,.4-.23,1.76-1.09-1.31-2.23-.63-2.36-.19-2.53-4.18-.74-2.22,6.59.67,1-16.93,15.2-10.65ZM657,645.36c.29,3.8-4.32,3.28-6.75,2.73.21-3,4.56-4.43,6.75-2.73Zm-77.71,5.53c.8.85.06,2.52-.89,1.21-.47-.48-.64.77-1.21.53,1.58,1-.17.55-.29,1.84.72,2.25.09.81-1.26,1.36.14-1.22.61-9.14,1.79-5.81.4.26,2.9-.24,1.86.87Zm3.36,2.29c4.11-.22-1.9,1.55,0,2.68-.06,2-1.37.71-2.4.59-.13-.94,1.66-1.64.72-2-.53-4.41,1.05,2,1.67-1.29Zm-85.58,1c.89.18,1.21,1.53,1.53,2.28-1.36,2.26-4.79-2-1.53-2.28ZM604.62,683c3.24,7.66-12.27,8.92-15.43,3.43-3.2-6.44-10.78-8.18-16.82-8.21-9.5-1.65-4.13-10.22,3.38-8.2,4.07-1.76,8.08,2,11.51-2,1.36.93,2.53,5.15,4.87,4,2.68,1.62.28,6.16,5.19,3.66,3.16,1.31,3.79,5.75,7.3,7.34Zm-407-260c-7.7-17.44,7.23-9.86,9.83,2.55,8.81,1.41,14.91,4.9,16.68,16,8,8.46,4.5,3.62,13.91,6,4.3,4.53,5.2,5.55-1.17,8.17-4.89,2.73-5,3.35-8.45,2.18,2,.81,2.26,2.75,4.48.38,7.09.48,15.28-13.39,19.25-2,2.72-2.8,3.78,4.38,4,6.07.94,1.71-2.88.66-3.37,1.82-1.86-1.5-1.29-.6-1,1-.47.71-1.74,0-2,.78.45,2.36-6.35,2.34-3.53,2.91,5.41-2.53,4.15,1.15.59,2.13,1,.76,7.41.27,4.13,2.85-1.41.42-3.31,1.21-3.57-.89,2.31,5.46-2.55,4.22,1.89,7.33-1.32,1.21.78.05,1.27.73,1.17,2.12,3.35,3.16,5.48,4.24.94,2.46.5,0,2.18-.41,14.16-.46,11.54,9.41,12.24,20.77.78-1.29.73-2.8,2.22-.81,1.74.41-1.11,2.77,0,2.62,2-2.16.35-.12,1.58.53,7.1-3.18,3.09,7.33-1.58,7.9,3.21-2.71,3.22,3.59,1.13,4.3-2.29.08-3.44,5.39-2,3.09.15-2.3,3-2.17,3.85-3.91.43-2.16.72-4.94,2.73-6,2,3.87-.89-.84,4.78,2.1,3.59-1.82,7.39,1,9.48.48,2.66-.71-.42,3.32,1,4.67,2.24,2.93,4-.29,3.36,5.44,3.46,4.47,6.33-.37,5.56,8.9-10.92,2.29,4.12,70.05-11.4,53-3.12-2-5.16-8.29-5.5-2.29-2.9.3.76,1.82-1.66,3.84,3.62,3.34-8.94-3.1-9.19-4.79-8-3.33.37,5.32,0,8.87-5.65.41-1.08-.71-5.21-3.44-4-4.06-7.95-9.16-11.54-12.59,1.47-2-1.92-3.64-3.45-4.07.34-.9-.19-1.75-1.11-1.22-22.25-13.75-43.07-38.56-58.25-62.06,3.89-5-4.08-9.14-4.24-14.15-1.88-1.49.12-4-3.1-4.81-2-5.14-5.94-15.82-13.61-22.07-1.69-14.56-14.17-5.23-14.34-17.51-.84.46.5-2.23-.77-2.35-1.66.48.46-3.53-1.55-4.28-.6-.05-.37-.94-.35-1.33-.19-6.9-7.46-13.16-3.23-16.35-1.73-3.9-10.8-9.88-18.24-14.05-7.78,2.14-4.7-9.17-7-13.28-13.33-18.57-44.78-30.73-48.06-56.18-1.07-14.68,21.45,8.64,28.73,4.6,8.72-4,8.46,4.08,18-.57,3,5.18,10.78,8,9.65,14.82,2.85,1.06,7.13,2.13,5.53,7.9-.67.85-2.32.66-1.79,2.27.64-2.53,10.51,3.47,10.68,6,9.57,6.67,28.84,18.09,26.95,25.57-2.15-1.56,2.08-1.88,1.27.51,0,.5,1,3.66,1.26,2.12-.58-9,5,3.07,6.09,6.12,3.63,3.76,8.88,4.48,10.52,9.85ZM756.4,411.12c-.07.67-.74,2.7-1.29,1.11-.37-.94.73-2.9,1.29-1.11ZM748,413.38c.79-.23.7.7.39,1.14-1,.55-1.77-1.71-.39-1.14ZM585.22,482.33c-.14-5.42-2.5-11.2-1.11-16.86-2.54,1.24-4.23-2-2.4-3,3.31,3.16,3,4.15,4.37-.9-.82-2.13-3.93-3.27-.39-4.74-1.59-4,3.9-4.12,3.51-6.61-1.68-6.15,4.43-1,4.43-8.37,2.83-2.65.56,4,4.52,3.69,4.93,1.09,1.09-3.6,4.8-4,.6.54.62-.53.89-.81,2.5-.74,0-7.54,2.46-6.7,5.23-1.62,7.69,3.89,12.09.74-2.21,6.66,5.78,4.51,9.83,4.41.4,3.28,2.51-.52,4.23,1.17,1.95,1,2.45.05,4.65.61,4.56-1.58,9.29,7.5,11.93,1.8-.19-1.73,2.07,0,2.86,0,6-1.75,2,1.31,5.86,0,12.33,5.76,15.12-2.37,24-6.21.56,1.55,2-1.32.72-1.5-2.57.33-.45-2.5.6-3,4.62,2.53,5.92-10.32,9-5.66,2,.13,2.62-1.11,2.18,2,1.2,1.24,2.78,2.27.19,3.18-20.14,38.41-29.18,19.73-61.75,21.32-3-.88-2.89.59-5.6.75-5.1.74-1.11-4.18-9.56-1-23.59-6.28-42.22,17.41-19.26,31.91,2.67,1.47,1.37,10.86,5.12,8.57,2.83-.52,9,4,9.28-3.06,9.08-17.52,12.32,1.6,20.87-10,3-.27,22.63.95,11.74-1.72-2.56-.88,2.08-1.81,3.34-1.79,2.28-1.07,8.18-1.59,10.29,2.3-2.15,17.31-6.28-.69-7.87,3.75-9.84,1.21-11.19,16.4-22.3,17-8,1.58-1.94,10.5-12.49,3.23-.51-1.26-1.81.06-1.23,1,1.79-.61-.08,1.43.69,2,0,3.23.94-1.69,1.57-.22,1.78,4.6,5.77,5,8.88,8.65,2.47,4.46,4,10.33,8.16,12.18,3.35.91-2.57,3.94,4.66,6.07-1.89,3.59-.08,1.17-2.74,1.9-2.41,2.88.92,1.85.91,4-.34,1.39-.63-1-1.82-1.2-1.6.05-.15,1.21-.09,2.36-4.6,3.8,4.39,7.51,7.65,9.37.65,1.17-4,1.64-1.28,1.83,2-.43.75,4.59,2.26,3.15.32-.2,1.93.73,2.68.12-.35-.63-2.2-1.83-.71-1.94,2.85,1.56,2.59,6.95.71,8.75-.37-.49-3.77-3.77-3.3-2.29.73.9,3,2.56,1.33,3.35-.29-.16-1.27-1.43-.85-.31-.82.64-1.13-2.78-2.89-1.44-22.24,2.31,1.22,14-18.58,8.38-5.71-.8-2.86-10.38-2-12,6-4.53-12.76-9.53-14.2-17.28,2.15-3.8,7.53-11.43,2.53-14.21,5.62-3.49-7.51-6-8.84-1.78C586,531,598,528.45,596.58,540.43c.32,12.59-.79,25.32-1.92,37.3.77,2.29,4.34,8.54,2.25,8.94-1.86-4.94-5.72,1.14-9.35-1.19-3.11.27-1.54,4.06-5.82,3-1,0-.67-3.5-2-1.21-1,1-.66-3.47-2.55-1.51.79,1-1,.35-.68-.5-2.5-6.85,1.65-14.7,3.46-21.77,3.27-12.24-3.7-13.63-1.58-22-5-8.91-13.45,8.83-14.4-8.81-2.73-2.42,1.38-.78,1.56-6.16-8.62-4.31,5-5,5.12-11.05-1.71-5.79,4-7.94,4.67-12.13-5.18-6.2,6.6-35,9.87-20.94Zm10.9-42.93c1-.58.57,1.81-.19,1.06a1.78,1.78,0,0,1,.19-1.06Zm5.56.17c.27.11,1.06.71.37.64-.63-.51-1.84-1-.37-.64Zm-352.46,3.37c.74.56.18,1.53-.6.84-.81-.88-.31-.77.6-.84Zm4.22,1.74c.49.22,2,1.81.68,1.63-.16-.5-.77-1.1-.68-1.63Zm18.39.91c2.67.55-.2.49-1.09,1.05-.14-.69.46-1.07,1.09-1.05Zm-29.77.12c.35.36-.09,1.53-.55,1.5a1,1,0,0,1,.55-1.5Zm8.07,2c.65.12.12,1,0,1.34-1.17,1.44-.6-.88,0-1.34Zm-8.75,1.7c.34,2.3-.7.27-.87-.62.16-.57.81.31.87.62Zm-4.94,7.32c.41-.35,1.35-.9,1.81-.44-.42.24-1.53,1.11-1.81.44Zm33.65,12.35c1.12.71-.59,1.21-1.26,1-1.15-.83.68-1,1.26-1ZM368,488.8c.6.31-.13,1.25-.64,1.27-.35-.46.17-1.13.64-1.27Zm-1.73,1.94c.69.16-.86,1.82-.75.87-1.61.39.26-.76.75-.87Zm373.25,2.42c.63.9-1.09,1.7-1.78,1.27a1.27,1.27,0,0,1,1.78-1.27Zm-383.36,7.61c.4-.62,1.47-.5,2.07-.25-.45.58-1.46.31-2.07.25ZM665,505c.33.58,0,.83-.54,1.08-.23-.37,0-1.58.54-1.08Zm-1.66,0c0,.21.37,1.25,0,1.19-.2-.2-.23-1.81,0-1.19Zm14.19,1.11c.64.23.44,1.22.43,1.74-.68-.56-2.36-1.63-.43-1.74Zm-9.69,1.29c.41,1.34.3,1.05-.77.67.16-.27.47-1.38.77-.67Zm83.62,19.75c3.22,1.81-6.13,4.26-1.06,1,1.19,0,0-1.26,1.06-1Zm-3.73,5.4c2.28,1.92-3.54,2.91-2.31.86.59-.62,1.54-1.53,2.31-.86Zm-3.22,3.19c2,2.15-2.35.66-2.76-.31,1.39-1,1.59-1.35,2.76.31ZM638.4,538.25c.84.23.41,1.84-.28,1.29s-.49-3.2.28-1.29Zm210.47.76c.29.34.37,1.83-.26,1.24s-.22-1.4-1.08-1.37c-.91-1.29,1.1-.94,1.34.13ZM636,540.3c1,.67.71,1-.32,1.29-.76.59-.29-1.21.32-1.29Zm100.76,6.8c1.16,1.22-.26,2.87-1.52,1.72-1.3-1,.32-2.58,1.52-1.72ZM661,578.48c1.83.11,2.71,1.42,1.63,2.9-1.1.32-2.66-2.55-1.63-2.9Zm4.87,5.92c1,.08,1,2.77,0,1.3-1.17-1.37-2.58-3.33,0-1.3Zm175.16,0c.42.72,1.38.37,1.21.67-.5,1.38-1.92-.07-1.21-.67Zm9.82,2.1c-.1.48.66,2.37-.2,1.28-.11-.47,0,0-.05.13-2.35.35.77-5.58.25-1.41Zm-179.08,7.81c.64,2.77-1.1.07-2-.61-.36-2.42,1.5-.6,2,.61ZM381.37,635.79c-6.25,0-12.61-5.14-18.29-2.33-3.43-1.05-2.5-4-4.25-1.65-10.28,6.36-19,.92-30.95-3.59-36-1.6-4.75-12.4-20.69-11.28-4.7-5.33-11.73-2.64-17.62-3-2.19-2.4-3.77,1.72-4.16-2,1.89.93,2.11-3.66,3.58-1.5,1.51,6.93,4.57-2.61,5-4.7,5,3.89,3-5.24,4.58-8.22,1.73-2.12,4.24-8.12,5.37-2.65,1.64,1.7,1.9-1.61,3.48-1,3.17,3.3,7.49-.26,10.14,3.52,6.08,1.41,3.18-6,6.82-3.44,2.74,2.35,3.22-2.83,6.56,3.44,2,3.19,6.35,2.28,8.28,2.23,1.07.17,7.61,5.44,7.16.5,16.82,20,10.6,10.19,43.81,16.21,8,.9,8.17-24.68,16.73-5.93,8.79,1.68,4.58-2.39,8.75-.93,2,1.43,3.74,4.18,6.71,3.33,4.95-.35.35,4.24,10.89,1.52.89.12,1.54,1.65,2.5.83,1.58-3.21-.43,4.16,2.05,2.88-2.66,1.81,3.17,3.64-1.1,3.42.72,1.16,2.25,1.8,2.9.28,6.52,6.32-9.14,4.56,11.08,12.77,4-1.84,8.94-1.39,13.23-2.17,3.18-3,2.26-.86,5,.66,11.65-2.93.88,19.72,4.79,16.27-.71,4.82,11.17,7.9-.35,6.69-1.25,0,1.9-2.58-2.61-3-1.7,1.56-1.41-.49-3.23.6-1.24.17-1.14-1.26-2.24-.44-1.29.14.54-2-1.47-.92-.74.13-1.68-1.11-2-.45,0-2.86-2,.65-2.12-1.23-2.28-.7-4.25-2.63-6.67-2.66-5.53-6.07-12.56,5.13-29.21-2.3-1.28,1.42-3.07-1.44-4.1.09.11,2.18-.78-.55-1.21.45-.29,3.15-.94.12-5.39.24-9.45-2.09-21.21-3.71-31.64-10.54Zm501.85-35c1.68.91.59.17-.63,1.66-.8-1.13-4.57-3-3.23-3.95-.35-1.06-1.37,1.45-1.53-1.63.24-.76.77-2.54.94-.73,2-1.18,1,.48,1.85.6,1.17-.52-1,1.06-.17,1.62,1.14.82,1.86,2.3,2.77,2.43Zm9.49.74c2-.6.12,4.36-.59,3.9-.93-1.45.31-2.24.59-3.9Zm-4.77,3c-2.37,4.48-1,1.1-5.35-1.37,1.39-3.11,4.24-.37,5.35,1.37Zm2,3.7c1.68,1-.54,2.83-.78,4.06-1.87-.23,0-3.71.78-4.06Zm-63.78,2c1.08-.08.5,1.44-.27.89-1,.56.41.91,0,1.38-1.77,1.4-1-2.09.31-2.27ZM973,612.33c1.75,2.53-1.51,2.18-2.34.21-1.69-2.44,1.44-.54,2.34-.21ZM819.77,624.54c.81-.66-.28,1.43-1.15.72-.34-.14,1-2.27,1.15-.72Zm-2.23,1.65c.41.33-2.58,2.91-2.29,2-4-1.4.07-1.94,2.29-2Zm-4.23,2.89c1.54.44-3.27.94-2.55-.46.42-1.22.64.17,1.56-.07.33.52,1.84-.32,1,.53Zm2.79,2.09c1-.87.29,1.28-.26,1.4-2-.64-.19.8-2.16.43-1.12-1.26,1.85-1.51,2.42-1.83ZM736.36,640c.95,1.22,0,2.38-1.32,1.55.07-.78.1-2.29,1.32-1.55Zm-195.89,2.69c1.33.54,0,1.09-.49,1.68-2.29,8.43-6.31-3.22.49-1.68Zm206.66.24c1.93,1.58-2,2.25-2.82,1.06.68-.45,1.92-1.69,2.82-1.06ZM773.55,644c.66,2-2.74.89-3.64.35-1.07-1.54,3-1,3.64-.35Zm-16.38,1c.51,1.25-3.92,1-2.8-.41.41-.75,3-1.17,2.8.41Zm-104.28,3.88c2.38,1.4-2.3.5-4.76,4-2.11-2.42,3-3.77,4.76-4Zm-200,.47c1.85,1.42-3.92,1.59-2,0-.49-.65,1.6.19,2,0Zm85.56-277.62c-.63,2.15-5.41-1.64-3.28.76-.86,1,.81.53,1.21,1,.47.14-.39,1.2.46.82.82-1,2.18,2,2.85,2.11,3.13,1.62-.87.63-2.14.23,9.91,3,4.36,11.95-1.12,3.17,4.18,7.93-6.29.3-9,4.36,3.37-1.61,3.15-.18,4.36,2.28,2.35,1.27,6.12.76,2.95,3.76-.81,4-3.17-.55-2.16,2.13.66,1.28,3,.63,3.62,1.38-.48,2.48,6.21.3,2.4,3.68,1.94.14,4.1.54-.64,1.41,2.57,1.15,5.54-.44,1.55,2.27,4.46,2,7.07,8.26,9.84,12-1.24,1.27-4.23,4.69-5.6,3.77,3,2,.1,1.51-1.75,1.35,1.09.95,3.26.6,2.69,2.64,4.13,7.56,15,10.32,19.57,17.69,13,6.67-15.87,10.47-17.44.69-6.07-3.49,6.92,9.09-1.88,5.77-7,.87-12.43,35.61-5.91,27.41,1.82-.52.22,1.49-.78,1.49,1.34,1,.93,2.2-.57,2.72,1.64,0,.37,2.12-.62,1.66-1.28.81,3.16.35,2.61,1.78a9.43,9.43,0,0,1-3.47,1.09c-.41,3.57-1.38-1-1.93,1.28-3-4.28-5,9.16-10.95,8.5-.88-.24.58-1.85-.38-1.6-.68,1.27-.15-.36-.49-.74-1.3-4-2.25-2.5-.63.51-1.09,1.36,1.66.86.2,2.32-.17.41.13,1.28-.09,1.7-10.15,3.18,1.34,4.38-8.54,7.26-1.2.67-4.18,3.08-.78,2.31,4.28-2.51,1.48.8,3.26,2.34-.29,6.33-1.23,1.82-3.76,5.76,6.34-.6,7.88.56,4.81,8.45-1.24.74-1.15-2.53-2.7-.92-2.42-.69-.83,1-1.83,2.11,4.35-4.34-.15,17.19-3,4.58-1.26,2.38-.61,3.85.85,5.44,3,2,.72,1.34-.59,2.4,1.42,2.65-1.08,0-2.87,5.26-1.89,8.77-16.39,9.43-23.53,14.5-9,11.35-5-24.59-8-12.82-8.65,0-.79-7-3.37-5.29-2.13,4.52-5.22,3.33-4.34-1.08-.15,3.3-3.37,4.61-6.1,5.64-7.53,2.86-.06-7.73-6.74-6.17-1.89,2.2-2.07,2.42-3.76-.27,3,5.31-4.74-3.44-5.49-5.26-.18,6-7.33,14.39-15,8.59-3.3-.79-10.36,10.5-9.59,2.94.52-2-1.47-18-2.65-14.47.74,1.62-1.26,2.26-.51,2.75,1.64.09-2.54,3-3.18,1.81-3.58-5.76-10.25,5.44-14.75.79-4.49,0,6.94-4.78,1.85-2.71-3,.09-5.43,7.18-5.47.92-1.58-6.64-10.24,7.56-7.86-3-.08-1-.52-2.19-.68-3.21.19-1.15-2.06-.47-.7-1.74.15-1.48,2,0,2.07-1.57-6.27-1,.06-13.41-7.73-15.21,7.13-7.92,1-13.48-3.53-19.64,0-.56,1.42-1.67.07-1.17-1.26,5.46-3.2-1.76-6.45-.64-1,5-7.23-6.32-.76-3.38,3.8,2.37,2-.53-.43-1-.5-.21.49-.44-.15-.7,4-.57-7.46-.24-5-5.72,1.6-.86-3.55-3.11.13-3.44.76-.28,2.47,1.21,2,.41-1.11-.84-.29-2.51-.8-3.65-.41-.58-1-2.59.37-1.73,4.6.91-1.26-1.07-1.95-4.83-.5-1.56-3.53-.62-3.72-2.13,2.13-4.14-3.68-10.13.67-12.23,2-1.63-1.79-5.22,0-6.3,2.62,1,7.71-6.07,5.43-4.08-5.46,6.68-3.91,1.62-2.95-3.61,1.63-1.57,5.5-4.17,5.41-6.26-2.16,2,.47-.6-.05-1.81.05-2,4.17-1,5.3-2.34,1.84-2.8.69-.48-.16,1-3.6,3.77,8.38,16,12.3,17.72,3.22,5.9.16,2.08,4,4.12,1.93,4,5.75,1.68,8.32,1.11,5.52-6.45,15.79-.47,21.26-2,4.25-6.44,4.45,1.93,7.47-8.15-.38-5.1,13-4,16.61-4,1.76,1.11-.74,2.3-.8,3.18,7.43-1.17,14.08,8.42,19.13-.43,1.93-.68,4.47-.92,6,.26,1-.51,3.72-2.43,4.88-1.51,3.13,4,5.37-4.54,5.14-7.23,9-3-4-7.89,5-10.17-.59-3,8.35-3.62,5.09-6.74-.66-.95-2.33.7-2.11-.84.17-2.46,1.57-10.46,5.15-7.85,6.75-.71,1.62-6.39,5.27-9.64,1.66.19-.58-3.35-.46-4.51-.25-1.54,1-3.55.9-5-.91-.59-1.62-1.45-.15-2,1.91-8.86,3.71-3.49,5.39-9.74,6.24,5,2.93-.29,7.61.69,4.07-1.66,2.26,2.87,5.72.73a29.84,29.84,0,0,1,22,3.64Zm149.65,291.4c4.12.92,11.58-9.28,12.19-4.92,2.37,3,7.72-6.67,6.94,2.52-4.35.89-7.3.35-2.71,4.61.47,16-26.37,25.75-39.79,28.1a5.19,5.19,0,0,1,4.44-5.62c5.8-3.13-.09-2.67-2.54-2.21-1.09-3,2.21-2.62,1.75-5-2.63-3.61,7.35-14.6,10.52-10.72,1.92.29,2.08-3.05,4.32-.59.78,5.3,5.16-4.23,4.88-6.18ZM541.28,371.6c1.2.48,3.39-.33,4.27.41,1.29,4.54-2.91,1.47-4.27-.41Z" transform="translate(-75.99 -333.18)"/></svg>