<svg id="Layer_1" data-name="Layer 1" xmlns="http://www.w3.org/2000/svg" viewBox="0 0 231.83 195.67"><defs><style>.cls-1{fill:#dfdfdf;}</style></defs><path class="cls-1" d="M443.94,414.16c.18.5,1.74,1.29.39,1.36-.63.71-1.09,2.28-2,1.72-2.48-2.69-4.77,1.39-6.55-1.9.39-1-1.5-.81-2.11-1.14-.41-1.75-1.32-3.77-3.52-3.39-.78.22,1.39.56.22.63-.81,2.67,12.12,6.17,2.46,7.3-2.39-.58-.45-6.31-3.92-1.59,1-.72-.48,2.25-.39,1,.11-6.16-2-1.74-4.94-3.89-3.64-1.7.69-.44,2.21-.76,1.16-.73-1.19-.44-.2-.84a.73.73,0,0,0,.07-.94c-.09.26-.31.78-.66.63,0-1-.29.14-.74-.34,0,.34.42.77.14,1.06-7-2.47,19.13-6.86,19.54,1.07Z" transform="translate(-412.06 -409.63)"/><path class="cls-1" d="M548.08,433c-.26,2.74-5.83,3.16-7.88,1.65-5.33,3.27-2.41-10.45-6.31-6.63-.65,1.94-4.17-3.68-4.19-1.91.44.76.08.44-.43.28-5.3-5.23,3.73-2.59,6.54-1,4.38-3.44,6.55,8,12.27,7.58Z" transform="translate(-412.06 -409.63)"/><path class="cls-1" d="M439,430.92c2.05,17-16.06-1.72-3-2.34.54,1.5,4.24-.6,3,2.34Z" transform="translate(-412.06 -409.63)"/><path class="cls-1" d="M519.83,431.32c.07,5.22-6,1-3.06-1.63a1.53,1.53,0,0,1,1.7,2.49c.2,1.54.86-.86,1.36-.86Z" transform="translate(-412.06 -409.63)"/><path class="cls-1" d="M525.72,441.38c2.76.82-3,1.58-3.87.7-.15-1.57,2.91.05,3.87-.7Z" transform="translate(-412.06 -409.63)"/><path class="cls-1" d="M557.77,447.72c2.93,1.72-2.64.87-3.57,2.13-31.54-1.27-28.51-9.76,3.57-2.13Z" transform="translate(-412.06 -409.63)"/><path class="cls-1" d="M425.26,450.43c-2.68,1.45,2.31,1.24.64,2-.82.73-1.74.9-1.58-.55-1.07,1.55-4,3.56-5.21,1.55-15.61-3.26-1.29-5.37,4.81-7.62,1-.4.68.83.62,1.36,1.45.74,2.52,2.61.72,3.24Z" transform="translate(-412.06 -409.63)"/><path class="cls-1" d="M600.64,575.06c6.65.16-2.58,7-.95,11.07-17.05,14.51-7.73,4.39-24.93,8.53-2-9.33,16.08-33.44,25.88-19.6Z" transform="translate(-412.06 -409.63)"/><path class="cls-1" d="M642.39,466.08c-5,19.47,12.1,173.67-10.69,132.16-8.5-8.25-12.1-7.1-6.85-14.91-4.73,5.42-.22,3.89-10,4.66-3.43,2.15-8.75,2.81-8-2.71-1.2-1.34.68.12,1-.66-3.56-1.65.91,3.22-3.39,3.2-2.94.84-3.73,6.62-5.53,1.47,3.82-11.69,7.35-12.89-3.38-22,3.73-1,9,3.38,11.31-.76-12.69,4.17-19.51-13-1.21-4.41-.76-.06-15.17-7.53-9-6.51,4,2-.79-.56-1.35-1.37-8.83-8.49-3.3-6.34-8.23-14.51-1.55-2,3.27-1.87,2.24-2.4-.48-.09-.87.43-1.3.3-8.59-1.68,2.86-3.75,0-4-9.55,4.52-2.92-5.72-5.74-5.19-.71-.36.59,1.62-.85,1-3.86-3.72.53-3.45-3.91-2.78-1.52-1.64,1.27-2.28-1.56-1.76-1.18-2.68-2.86.06-3.27-3.36-.47-.32-.68,1.15-1.3.47-.4-1.29-3.44-.52-2.9-2.11.19-1-.45.52-1.24-1,.28.82-.88.71-.83,0,.68-3.43-.85,1.34-2-.18-.86-.61.1-1.61-1.12-.27-1.22-.22.42-3.22-.86-1.21-4,1.54-1.36-1.71-2.58-1.07-4.57,2.76-9.92-5.18-15.8-5-7.83-6.8-29.06-1.76-30.41-13.31-2.94-5.14,8.55.41,4.56-2.68-6.76-1.2-5.9,4.36-11.09-.54-2.09-1.69,1.22,1.39-1.42,1,1.33,1.27.37,2.55-.7.6-2.78-.25-1.27-2.47-2.69-1.51-.25-1.38,2.29-1,.12-3.2-1.59-.57,1.45,2-2.53,1-1.18,3.15-3.32-3.63-3.8-4.72-2.12-.21.64,3.31-.58,2.86-.13-.65-.83-1.71-1.59-1.27-1.47.93.37-1.28-1.73-3.47,1.76-4-.64-5.88,3.58-8.56.66-2,2.59,1.58,1.84-.71-1.91-.13,0-6.16-2-2.2-4.79,2.26-2.12,13.31-6,8.77-.73-.26.57,1.64-.7,1.22,6.55,2.69-5.29,5.52-.72,9-3.82,6.69-13.51,8.15-13.73-.94-3.65-8.15,3.47.31,2.36-6.16-1-2.4-2.26-.28-1.68-4.85-2-2.82-1.87,4-4.45-1.58.61-5-10.19-7.42-12.71-6.64-.49-.79,2-1.3.15-2,3.49-1.4-2.8-.52.42-1.8,1.47.1,1.31-.6,3-.56,1.75-.64-1.89.06-.71-.78,3.52-2,7.87,2.08,7.13.21,10.7,7.24,13.92-17.37,19.15-.71-.22-1.61,1.23-6.91,1.2-1.75,0,.7-.31,1.52.24.45,0-1.67.22-3.17.94-.58,3-2.62,3.27.25,3.35,2.81.55-.83,0-5.32,1.34-4.14,2.49,5.64,1,.58,1.48-1.14-3.64-.62,1-2,1.82,0-2-2.59.81-.84,2-1.95-5.62,0,1.88-1.59-2.82-1.2a2,2,0,0,0,1.69-2.87c.43,1-2.64,2.87-2.92,1.49-.74-1,2.34-1.55,2.92-2.24-.26-.45-1.08.67-1.12-.15,3.24-2.79-3.62.14-4.44.92-4.22,1.45-13-.6-20.1,2.22-3.57-1.28.68-4.62-7.19-.77-1.52.22-1.78-1.58-2.74-2.3-1.62-.87-5.59-1.68-1.79-3.68-4.7,1.33-4.16-4.55-2.11-7.08-3.1,1.86-3.62-1.53-.86-3-.54-.3-2.42,1.47-1.92.4-3.15,1.48-.94,1.33-2-1.3.48,1.35-1.73,2.52-1.73.82.89-.83-.81-.33-1.22-.21-2.61-2.51-4.12.65-5.33-1.64,1-1-.64-1.28-1.33-1.09-.06,0-1.3-1.12-1-.2,2.63,1.81.17,2-1.43,2.89-.38-2.93-5.74-.2-5.18-2.6,12.21-10.23.76-12.16,11-14.46,21.92-4.54,10.31-17.1,42.74.09,4-.61,8.45-1.29,12.13,2.35,0,1.1-4,.32-1.76,4.12,8.77,12.77-6.79,17.37,7.43,38.73,3.69,3.94-1.05-5.46,2.17-7.58.95.5,2.27.85,2.29,2.19-.16,17.79,4.85,2.77,4,9.69-1.43,1.09.38,7.34,2.3,5.16-.66,2.3,1.67,1.92,3,2.72,9.46,1.12,7.13-.2,13.14-5.94,5.39-3.68,2.08-3.12,5.35-7.58,8.4-4.5,3.94-10.85,10.65-12.25,3,4.44,8.23-2.42,12.75-1.72,5.48-5.38-9.2-3.55,7.07-10.78,18.25-7.25,40.76,18.71,58.48,18.06.07-1.33,8.56-.59,7.91,2.66-2.24,2.54,2.94.62,4.89.81Z" transform="translate(-412.06 -409.63)"/></svg>